<svg width="538" height="347" viewBox="0 0 538 347" fill="none" xmlns="http://www.w3.org/2000/svg">
<g clip-path="url(#clip0)">
<path d="M335.3 346.815C340.596 336.6 345.888 326.233 348.187 315.165C350.485 304.097 349.521 292.085 342.938 282.485C336.355 272.885 323.393 266.375 311.024 268.545C300.864 270.327 292.707 277.473 287.93 285.676C283.154 293.879 281.237 303.131 279.379 312.226C278.779 301.893 278.143 291.393 274.299 281.632C270.455 271.871 262.886 262.775 252.099 258.997C241.311 255.22 227.278 258.191 221.592 267.206C213.582 279.908 224.203 297.725 214.993 309.761C213.413 297.688 199.275 288.15 185.839 290.091C172.402 292.033 162.354 305.066 165.118 316.967C166.763 324.049 172.174 330.072 178.643 334.424C185.112 338.776 192.635 343.819 200.078 346.672L335.3 346.815Z" fill="#F2F2F2"/>
<path d="M172.173 298.621C182.846 301.952 193.618 305.321 203.362 310.53C212.095 315.198 219.872 321.483 224.783 329.532C227.474 333.85 229.072 338.642 229.464 343.571C229.534 344.602 231.341 344.609 231.269 343.571C230.638 334.392 225.628 325.992 218.691 319.348C211.086 312.065 201.23 307.09 191.055 303.23C185.022 300.942 178.838 298.997 172.653 297.066C171.554 296.723 171.081 298.28 172.173 298.621Z" fill="white"/>
<path d="M233.737 260.598C240.295 270.353 245.546 280.763 249.383 291.613C253.227 302.459 255.649 313.667 256.599 325.012C257.125 331.363 257.182 337.737 256.771 344.095C256.704 345.131 258.51 345.128 258.577 344.095C259.305 332.633 258.528 321.134 256.262 309.833C253.999 298.533 250.28 287.505 245.179 276.969C242.316 271.051 239.015 265.31 235.296 259.784C235.171 259.607 234.974 259.481 234.747 259.431C234.519 259.381 234.279 259.413 234.076 259.518C233.874 259.624 233.726 259.795 233.662 259.997C233.599 260.198 233.626 260.414 233.737 260.598Z" fill="white"/>
<path d="M322.112 269.86C312.837 288.47 306.309 308.077 302.694 328.19C301.679 333.839 300.893 339.516 300.337 345.221C300.236 346.255 302.042 346.249 302.142 345.221C304.109 325.154 308.966 305.396 316.593 286.438C318.736 281.108 321.096 275.853 323.671 270.674C324.139 269.733 322.583 268.912 322.112 269.86Z" fill="white"/>
<path d="M63.8408 345.609C45.3418 341.31 28.995 331.589 17.4208 318.004C5.84658 304.419 -0.284706 287.757 0.00976676 270.689C0.0831299 266.437 0.583833 262.095 2.58567 258.236C4.58751 254.377 8.3059 251.039 12.9572 250.125C18.0334 249.127 23.3898 251.167 27.1728 254.35C30.9558 257.533 33.4362 261.732 35.7183 265.903C49.4639 291.021 59.9075 317.973 63.8176 345.711L63.8408 345.609Z" fill="#F2F2F2"/>
<path d="M10.6543 250.963L20.288 270.509L29.9217 290.055C32.9727 296.246 36.0179 302.439 39.1714 308.588C42.2973 314.684 45.5303 320.737 48.9792 326.692C52.4233 332.639 56.0837 338.489 60.0568 344.168C60.5516 344.875 61.0513 345.58 61.5558 346.282C61.9049 346.768 62.7777 346.317 62.4261 345.827C58.3767 340.191 54.6454 334.376 51.1459 328.454C47.6425 322.526 44.3682 316.491 41.2147 310.409C38.0445 304.294 34.9961 298.13 31.9559 291.962C28.7557 285.471 25.5561 278.979 22.3571 272.487L12.7234 252.941L11.5245 250.508C11.2638 249.98 10.3951 250.437 10.6542 250.963L10.6543 250.963Z" fill="white"/>
<path d="M59.8221 345.745C48.9179 347.973 37.492 346.866 27.376 342.603C17.2599 338.341 9.03959 331.168 4.03267 322.236C2.78518 320.01 1.73257 317.636 1.60525 315.149C1.47792 312.663 2.39939 310.034 4.53782 308.438C6.8716 306.696 10.2693 306.464 13.1956 307.204C16.122 307.945 18.6794 309.528 21.1249 311.142C35.855 320.87 49.425 332.345 59.8407 345.804L59.8221 345.745Z" fill="#F2F2F2"/>
<path d="M3.5956 309.428L14.5064 317.254L25.4171 325.079C28.8726 327.558 32.3258 330.039 35.8222 332.472C39.2878 334.883 42.7963 337.246 46.3873 339.506C49.9733 341.764 53.6423 343.919 57.4219 345.909C57.8926 346.157 58.3649 346.402 58.839 346.645C59.1672 346.813 59.484 346.369 59.1535 346.199C55.3471 344.249 51.6521 342.13 48.0449 339.899C44.4338 337.666 40.9095 335.322 37.4335 332.924C33.9389 330.514 30.4927 328.048 27.0498 325.579C23.4259 322.98 19.8021 320.381 16.1787 317.782L5.2679 309.956L3.91012 308.983C3.61485 308.771 3.30215 309.218 3.59561 309.428H3.5956Z" fill="white"/>
<path d="M524.217 347H26.2853C26.191 347 26.0976 346.984 26.0104 346.952C25.9232 346.92 25.8439 346.873 25.7772 346.813C25.7104 346.754 25.6574 346.683 25.6213 346.605C25.5851 346.528 25.5665 346.444 25.5665 346.36C25.5665 346.276 25.5851 346.192 25.6213 346.115C25.6574 346.037 25.7104 345.966 25.7772 345.907C25.8439 345.847 25.9232 345.8 26.0104 345.768C26.0976 345.736 26.191 345.72 26.2853 345.72H524.217C524.407 345.72 524.589 345.787 524.723 345.908C524.858 346.028 524.933 346.19 524.933 346.36C524.933 346.53 524.858 346.693 524.723 346.813C524.589 346.933 524.407 347 524.217 347Z" fill="#3F3D56"/>
<path d="M511.136 282.884H477.425C477.425 283.24 477.266 283.582 476.984 283.834C476.702 284.086 476.319 284.227 475.92 284.227H442.829C442.361 284.542 441.935 284.902 441.559 285.302C440.428 286.507 439.809 288.03 439.813 289.602V290.677C439.814 292.459 440.607 294.167 442.018 295.427C443.428 296.687 445.342 297.395 447.337 297.395H511.136C513.131 297.394 515.043 296.686 516.454 295.426C517.865 294.166 518.658 292.458 518.659 290.677V289.602C518.657 287.821 517.863 286.114 516.453 284.854C515.043 283.595 513.131 282.886 511.136 282.884Z" fill="#3F3D56"/>
<path d="M483.447 297.128H475.622V346.576H483.447V297.128Z" fill="#3F3D56"/>
<path d="M505.716 346.33C505.716 347.085 493.859 346.622 479.234 346.622C464.608 346.622 452.751 347.085 452.751 346.33C452.751 345.575 464.608 339.589 479.234 339.589C493.859 339.589 505.716 345.575 505.716 346.33Z" fill="#3F3D56"/>
<path d="M509.662 284.432L508.349 277.101C508.183 276.177 507.613 275.349 506.765 274.8C505.916 274.251 504.858 274.025 503.823 274.171L490.287 276.101L467.103 279.406L459.561 280.481H475.92C476.319 280.481 476.702 280.623 476.984 280.875C477.266 281.127 477.425 281.469 477.425 281.825V282.884C477.425 283.24 477.266 283.582 476.984 283.834C476.702 284.086 476.319 284.227 475.92 284.227H434.288C433.707 284.47 433.204 284.84 432.826 285.302C432.505 285.678 432.274 286.109 432.146 286.567C432.018 287.025 431.995 287.502 432.079 287.968L432.452 290.054L432.904 292.585L433.391 295.305C433.557 296.226 434.125 297.052 434.972 297.6C435.818 298.148 436.873 298.374 437.905 298.229L448.661 296.697L479.682 292.273L506.381 288.468C507.414 288.318 508.338 287.809 508.952 287.053C509.567 286.297 509.822 285.355 509.662 284.432Z" fill="#6C63FF"/>
<path d="M447.836 285.302C447.441 284.833 446.916 284.463 446.314 284.227H434.806C434.2 284.461 433.674 284.832 433.277 285.302C432.741 285.915 432.451 286.67 432.452 287.447V328.407C432.454 329.341 432.87 330.235 433.609 330.895C434.348 331.555 435.35 331.927 436.395 331.928H444.719C445.764 331.927 446.766 331.555 447.505 330.895C448.244 330.235 448.66 329.341 448.661 328.407V287.447C448.662 286.67 448.371 285.915 447.836 285.302Z" fill="#6C63FF"/>
<path d="M472.887 215.539L472.808 215.447L467.644 209.766C467.369 209.461 467.037 209.201 466.663 208.998C466.465 208.878 466.251 208.78 466.025 208.707C465.696 208.589 465.349 208.513 464.996 208.482C464.76 208.459 464.522 208.456 464.286 208.471C464.281 208.471 464.277 208.473 464.274 208.476C463.476 208.529 462.715 208.799 462.095 209.25L451.496 216.925L437.875 226.793L417.55 241.52L416.069 242.595H441.788L443.274 241.52L448.192 237.956L448.541 237.709L472.291 220.505L472.309 220.494C472.798 220.143 473.184 219.691 473.434 219.177C473.6 218.841 473.705 218.484 473.747 218.118C473.802 217.659 473.754 217.194 473.606 216.751C473.459 216.309 473.214 215.896 472.887 215.539Z" fill="#6C63FF"/>
<path d="M472.808 215.447C472.476 213.999 471.739 212.649 470.666 211.524C469.596 210.39 468.218 209.52 466.663 208.998C466.422 208.917 466.188 208.842 465.947 208.783C465.404 208.638 464.848 208.534 464.286 208.471C464.281 208.471 464.277 208.473 464.274 208.476C461.741 208.215 459.195 208.843 457.172 210.228L438.838 222.741C438.449 223.052 438.134 223.429 437.912 223.851C437.689 224.273 437.564 224.731 437.544 225.197C437.516 225.745 437.629 226.291 437.875 226.793C437.936 226.906 438.002 227.019 438.074 227.126C438.214 227.345 438.384 227.547 438.58 227.728L441.517 230.674L448.348 237.516L448.54 237.709L448.98 238.155C449.33 238.498 449.752 238.775 450.222 238.971C450.691 239.168 451.2 239.28 451.718 239.3C452.237 239.32 452.755 239.249 453.242 239.091C453.73 238.932 454.177 238.689 454.559 238.376L470.371 223.208C471.192 222.421 471.843 221.504 472.291 220.505C473.013 218.9 473.193 217.142 472.808 215.447Z" fill="#D21744"/>
<path d="M479.798 195.985C496.459 195.985 509.966 183.924 509.966 169.046C509.966 154.168 496.459 142.107 479.798 142.107C463.137 142.107 449.631 154.168 449.631 169.046C449.631 183.924 463.137 195.985 479.798 195.985Z" fill="#6C63FF"/>
<path d="M491.112 280.723L490.287 276.101L489.8 273.387C489.633 272.464 489.064 271.638 488.217 271.09C487.369 270.542 486.313 270.316 485.279 270.463L463.353 273.585L457.407 274.435L456.203 274.607V280.481H475.92C476.319 280.481 476.702 280.623 476.984 280.875C477.266 281.127 477.425 281.469 477.425 281.825V282.884C477.425 283.24 477.266 283.582 476.984 283.834C476.702 284.086 476.319 284.227 475.92 284.227H413.523C413.523 284.238 413.529 284.249 413.529 284.26L413.902 286.345L414.841 291.591C415.007 292.512 415.576 293.338 416.422 293.886C417.268 294.434 418.323 294.66 419.356 294.515L430.111 292.983L432.452 292.65L432.904 292.585L448.661 290.338L459.381 288.807L476.39 286.383L476.643 286.345L487.831 284.754C488.864 284.606 489.789 284.099 490.404 283.344C491.019 282.588 491.273 281.646 491.112 280.723Z" fill="#6C63FF"/>
<path d="M520.857 260.955C520.857 282.916 518.359 296.052 479.838 292.289C479.784 292.284 479.736 292.279 479.682 292.273C472.812 291.667 466.017 290.507 459.381 288.807C455.932 287.907 452.58 286.735 449.365 285.302C448.607 284.958 447.879 284.598 447.162 284.227H475.92C476.319 284.227 476.702 284.086 476.984 283.834C477.266 283.582 477.425 283.24 477.425 282.884V281.825C477.425 281.469 477.266 281.127 476.984 280.875C476.702 280.623 476.319 280.481 475.92 280.481H456.203V246.535C456.201 245.49 455.736 244.489 454.909 243.75C454.082 243.012 452.96 242.596 451.791 242.595H435.751C435.889 242.24 436.027 241.88 436.178 241.52C437.683 237.802 439.466 234.178 441.517 230.674C444.325 225.807 447.668 221.202 451.496 216.925C454.161 213.945 457.153 211.21 460.428 208.761C466.465 204.311 473.037 201.559 479.706 201.559C504.299 201.559 520.857 238.994 520.857 260.955Z" fill="#D21744"/>
<path d="M480.432 179.03L480.464 178.024C478.366 177.971 476.517 177.854 475.128 176.948C474.734 176.676 474.41 176.332 474.179 175.939C473.947 175.545 473.813 175.112 473.786 174.668C473.761 174.397 473.807 174.125 473.92 173.872C474.033 173.619 474.209 173.393 474.435 173.211C475.358 172.516 476.842 172.741 477.923 173.184L478.856 173.566L477.067 161.893L475.951 162.029L477.472 171.959C476.849 171.752 476.179 171.689 475.521 171.773C474.864 171.858 474.24 172.088 473.708 172.442C473.35 172.722 473.069 173.071 472.887 173.463C472.705 173.856 472.627 174.28 472.659 174.704C472.692 175.3 472.871 175.882 473.182 176.41C473.494 176.938 473.931 177.399 474.463 177.761C476.248 178.926 478.568 178.984 480.432 179.03Z" fill="#2F2E41"/>
<path d="M470.427 162.886H464.355V163.892H470.427V162.886Z" fill="#2F2E41"/>
<path d="M489.592 162.886H483.52V163.892H489.592V162.886Z" fill="#2F2E41"/>
<path d="M503.875 161.644C501.528 158.49 497.4 157.153 493.329 156.828C488.747 156.462 484.319 157.251 479.845 158.018C474.922 158.861 469.711 159.651 464.75 158.584C462.555 158.131 460.504 157.238 458.752 155.974C457 154.71 455.592 153.107 454.634 151.287C452.817 147.734 452.426 143.732 453.526 139.952C454.688 135.932 457.574 132.395 461.072 129.723C468.212 124.27 477.874 121.82 487.167 122.051C496.425 122.264 505.374 125.074 512.744 130.081C520.126 135.27 525.322 142.54 527.481 150.705C529.739 158.802 529.004 167.335 525.384 175.029C523.35 179.242 520.409 183.04 518.14 187.146C516.027 190.97 514.399 195.415 515.714 199.68C516.868 203.423 520.255 206.747 524.507 207.763C526.442 208.217 528.489 208.097 530.341 207.422C532.192 206.747 533.749 205.553 534.775 204.02C536.901 201.027 536.952 197.106 533.76 194.69C532.956 194.07 532.018 193.603 531.005 193.318C529.992 193.032 528.925 192.933 527.867 193.027C526.81 193.121 525.786 193.407 524.856 193.865C523.926 194.324 523.11 194.947 522.459 195.697C521.164 197.198 520.584 199.095 520.846 200.976C521.003 201.927 519.374 202.337 519.215 201.378C518.834 199.389 519.257 197.343 520.407 195.606C521.557 193.869 523.361 192.553 525.496 191.893C527.631 191.233 529.96 191.271 532.067 192C534.174 192.73 535.922 194.104 537.001 195.878C538.925 199.109 537.887 203.007 535.444 205.769C534.183 207.24 532.475 208.356 530.522 208.983C528.57 209.61 526.457 209.721 524.436 209.304C519.989 208.387 516.35 205.23 514.639 201.521C512.735 197.391 513.607 192.783 515.464 188.776C517.471 184.445 520.452 180.56 522.809 176.386C524.944 172.614 526.302 168.53 526.819 164.329C527.854 155.893 525.71 147.39 520.726 140.164C515.646 133.051 507.892 127.788 498.856 125.322C489.887 122.748 480.203 122.977 471.398 125.97C462.806 128.993 454.509 135.582 454.608 144.431C454.651 148.211 456.222 152.066 459.464 154.587C463.339 157.6 468.734 157.857 473.605 157.387C478.507 156.914 483.267 155.636 488.19 155.31C492.472 155.026 497.092 155.321 500.915 157.221C502.695 158.107 504.211 159.363 505.335 160.882C505.939 161.694 504.475 162.451 503.875 161.644V161.644Z" fill="#2F2E41"/>
<path d="M497.732 223.241L495.343 221.757L490.895 219C490.035 218.469 488.974 218.264 487.945 218.43C486.916 218.597 486.003 219.12 485.406 219.887L470.906 238.521L457.406 255.87L456.203 257.418V280.481H456.311C457.249 280.398 458.123 280.017 458.772 279.406C458.912 279.278 459.039 279.14 459.152 278.992L463.353 273.585L473.735 260.24L484.497 246.416L485.52 245.099L498.713 228.142C498.785 228.052 498.852 227.959 498.912 227.863C498.972 227.771 499.026 227.676 499.074 227.578C499.453 226.829 499.526 225.985 499.281 225.193C499.036 224.401 498.488 223.71 497.732 223.241Z" fill="#6C63FF"/>
<path d="M497.774 215.866C497.349 215.617 496.902 215.398 496.438 215.211C494.382 214.369 492.064 214.185 489.874 214.691C487.684 215.196 485.755 216.359 484.413 217.984L470.714 234.57C470.439 234.965 470.254 235.405 470.171 235.864C470.088 236.324 470.109 236.793 470.231 237.245C470.353 237.697 470.574 238.123 470.883 238.498C471.191 238.873 471.579 239.19 472.026 239.429L484.497 246.416L484.653 246.502L485.279 246.852C486.175 247.335 487.248 247.482 488.264 247.26C489.28 247.039 490.157 246.467 490.702 245.669L500.374 228.524L500.537 228.239L500.543 228.234L501.139 227.164C502.225 225.24 502.483 223.026 501.863 220.944C501.243 218.861 499.788 217.054 497.774 215.866Z" fill="#D21744"/>
<path d="M413.902 284.227V324.694C413.904 325.627 414.32 326.521 415.059 327.181C415.798 327.841 416.8 328.213 417.845 328.214H426.169C427.214 328.213 428.216 327.841 428.955 327.181C429.694 326.522 430.11 325.627 430.111 324.694V284.227H413.902Z" fill="#6C63FF"/>
<path d="M475.92 279.406H457.406V246.535C457.405 245.205 456.813 243.93 455.76 242.99C454.707 242.05 453.28 241.521 451.791 241.52H383.134C381.645 241.52 380.216 242.049 379.162 242.989C378.108 243.929 377.515 245.204 377.513 246.535V280.288C377.515 281.618 378.108 282.893 379.162 283.834C380.216 284.774 381.645 285.302 383.134 285.302H475.92C476.017 285.302 476.107 285.297 476.197 285.292C476.281 285.286 476.366 285.27 476.45 285.259C477.064 285.148 477.616 284.851 478.013 284.418C478.41 283.985 478.628 283.443 478.629 282.884V281.825C478.629 281.183 478.343 280.568 477.835 280.115C477.327 279.661 476.638 279.406 475.92 279.406ZM475.92 284.227H383.134C381.964 284.227 380.841 283.812 380.013 283.073C379.185 282.335 378.719 281.333 378.717 280.288V246.535C378.719 245.489 379.185 244.487 380.013 243.749C380.841 243.01 381.964 242.595 383.134 242.595H451.791C452.96 242.596 454.082 243.012 454.909 243.75C455.736 244.489 456.201 245.49 456.203 246.535V280.481H475.92C476.319 280.481 476.702 280.623 476.984 280.875C477.266 281.127 477.425 281.469 477.425 281.825V282.884C477.425 283.24 477.266 283.582 476.984 283.834C476.702 284.086 476.319 284.227 475.92 284.227Z" fill="#AC244D"/>
<path d="M417.46 267.545C420.017 267.545 422.089 265.694 422.089 263.412C422.089 261.129 420.017 259.278 417.46 259.278C414.904 259.278 412.832 261.129 412.832 263.412C412.832 265.694 414.904 267.545 417.46 267.545Z" fill="#6C63FF"/>
<path d="M73.427 194.21C91.2172 194.21 105.639 181.331 105.639 165.445C105.639 149.558 91.2172 136.68 73.427 136.68C55.6367 136.68 41.2149 149.558 41.2149 165.445C41.2149 181.331 55.6367 194.21 73.427 194.21Z" fill="#6C63FF"/>
<path d="M67.1476 273.655H58.264C57.2267 273.656 56.2322 274.025 55.4988 274.68C54.7653 275.335 54.3528 276.223 54.3518 277.149V343.263C54.3528 344.19 54.7653 345.078 55.4988 345.733C56.2322 346.388 57.2267 346.756 58.264 346.757H67.1476C68.1849 346.756 69.1794 346.388 69.9129 345.733C70.6464 345.078 71.0589 344.19 71.0598 343.263V277.149C71.0588 276.223 70.6464 275.335 69.9129 274.68C69.1794 274.025 68.1849 273.656 67.1476 273.655Z" fill="#2F2E41"/>
<path d="M85.9202 273.655H77.0366C75.9993 273.656 75.0048 274.025 74.2713 274.68C73.5379 275.335 73.1254 276.223 73.1244 277.149V343.263C73.1254 344.19 73.5379 345.078 74.2713 345.733C75.0048 346.388 75.9993 346.756 77.0366 346.757H85.9202C86.434 346.757 86.9427 346.666 87.4174 346.491C87.8921 346.315 88.3233 346.058 88.6866 345.734C89.0499 345.409 89.3381 345.024 89.5347 344.6C89.7313 344.176 89.8325 343.722 89.8324 343.263V277.149C89.8325 276.69 89.7313 276.236 89.5347 275.812C89.3381 275.388 89.0499 275.003 88.6866 274.679C88.3233 274.354 87.892 274.097 87.4174 273.921C86.9427 273.746 86.434 273.655 85.9202 273.655Z" fill="#2F2E41"/>
<path d="M92.3543 209.293C89.2411 205.7 84.9481 203.066 80.0758 201.76C75.2036 200.454 69.9958 200.54 65.1813 202.007C60.3667 203.474 56.1861 206.249 53.2245 209.942C50.2629 213.636 48.6683 218.064 48.6639 222.606V281.158C48.6615 281.337 48.6777 281.515 48.7121 281.691C48.855 282.586 49.3548 283.406 50.1198 283.999C50.8848 284.593 51.8638 284.92 52.8771 284.921H93.2453C94.362 284.919 95.4323 284.522 96.222 283.817C97.0116 283.111 97.4562 282.156 97.4585 281.158V222.606C97.466 217.785 95.6695 213.099 92.3543 209.293Z" fill="#2F2E41"/>
<path d="M100.629 178.161L100.596 177.086C102.835 177.03 104.81 176.905 106.293 175.937C106.714 175.647 107.059 175.279 107.307 174.859C107.554 174.439 107.697 173.977 107.726 173.503C107.752 173.213 107.703 172.922 107.583 172.653C107.463 172.383 107.274 172.141 107.032 171.947C106.048 171.205 104.463 171.445 103.308 171.918L102.312 172.326L104.222 159.861L105.415 160.007L103.79 170.61C105.359 170.198 106.814 170.375 107.81 171.126C108.192 171.424 108.492 171.797 108.686 172.216C108.88 172.635 108.964 173.088 108.929 173.541C108.894 174.177 108.703 174.799 108.371 175.363C108.038 175.927 107.571 176.419 107.003 176.805C105.097 178.049 102.62 178.111 100.629 178.161Z" fill="#2F2E41"/>
<path d="M97.3319 160.922H90.8487V161.997H97.3319V160.922Z" fill="#2F2E41"/>
<path d="M63.9818 210.121C63.6344 209.782 63.2149 209.508 62.7479 209.315C62.2809 209.122 61.7755 209.014 61.2613 208.998L54.2616 208.74L52.3895 208.67C51.3531 208.632 50.3422 208.963 49.5784 209.589C48.8146 210.216 48.3602 211.087 48.3148 212.013L47.2074 235.833L45.2513 278.073C45.2114 278.955 45.5458 279.817 46.1875 280.488C46.8292 281.159 47.7309 281.588 48.7121 281.691C48.8085 281.701 48.8987 281.707 48.9951 281.712L54.3518 281.911L57.8728 282.04C58.1548 282.051 58.4374 282.035 58.7154 281.992C59.4508 281.874 60.1334 281.572 60.6836 281.121C61.0631 280.811 61.3697 280.436 61.5856 280.019C61.8016 279.602 61.9225 279.151 61.9414 278.691L62.1762 273.655L63.9037 236.403L65.0111 212.631C65.0543 211.705 64.6841 210.803 63.9818 210.121Z" fill="#6C63FF"/>
<path d="M58.8539 204.907C58.1058 204.766 57.3432 204.696 56.5786 204.698C53.6266 204.701 50.7965 205.75 48.7091 207.614C46.6217 209.478 45.4474 212.005 45.4438 214.641V232.915C45.4455 233.494 45.6074 234.063 45.9151 234.572C46.2228 235.081 46.6668 235.515 47.2075 235.833C47.6483 236.093 48.144 236.268 48.664 236.349C48.8921 236.388 49.1238 236.408 49.3561 236.409H63.8012C63.8355 236.41 63.8698 236.408 63.9037 236.403C64.9226 236.38 65.891 236.002 66.6026 235.351C67.3143 234.699 67.7128 233.825 67.7134 232.915V214.641C67.7102 212.357 66.8282 210.144 65.2153 208.372C63.6024 206.6 61.3565 205.377 58.8539 204.907Z" fill="#412E34"/>
<path d="M136.003 256.951C135.059 256.515 134.317 255.796 133.91 254.919C133.502 254.043 133.455 253.066 133.776 252.162L137.2 242.428L136.201 241.687L109.917 222.268L92.3543 209.293L90.2177 207.713C89.4187 207.122 88.3897 206.839 87.357 206.926C86.3242 207.012 85.3723 207.462 84.7106 208.175L79.0468 214.292C78.7184 214.645 78.4712 215.052 78.3195 215.49C78.1677 215.929 78.1143 216.39 78.1624 216.846C78.2105 217.303 78.3591 217.747 78.5996 218.153C78.8402 218.558 79.168 218.917 79.5643 219.209L97.4585 232.431L99.4928 233.931L136.611 261.353C137.297 261.862 138.158 262.146 139.051 262.158C139.943 262.169 140.813 261.908 141.516 261.417C141.71 261.282 141.887 261.129 142.045 260.96C142.071 260.938 142.095 260.915 142.118 260.89L142.834 260.116L136.003 256.951Z" fill="#6C63FF"/>
<path d="M108.653 218.538L92.818 206.966C91.6865 206.139 90.3837 205.519 88.9839 205.141C87.584 204.763 86.1146 204.636 84.6595 204.765C83.2044 204.895 81.7921 205.279 80.5033 205.896C79.2145 206.513 78.0743 207.35 77.1479 208.361C76.2216 209.371 75.5271 210.534 75.1043 211.784C74.6814 213.034 74.5384 214.347 74.6834 215.646C74.9763 218.27 76.4246 220.683 78.7097 222.354L94.5452 233.925C95.2427 234.436 96.1163 234.715 97.0179 234.716C97.9195 234.717 98.7938 234.439 99.4927 233.931C99.7011 233.787 99.889 233.621 100.052 233.436L109.201 223.456C109.525 223.105 109.768 222.702 109.917 222.268C110.142 221.604 110.143 220.896 109.918 220.232C109.693 219.568 109.253 218.978 108.653 218.538Z" fill="#2F2E41"/>
<path d="M65.3512 170.315C63.6739 167.813 62.3611 165.056 62.9842 162.091C63.5406 159.443 65.6742 157.381 68.7422 157.111C70.5898 156.948 72.4286 157.388 74.2331 157.675C75.7123 157.907 77.2155 157.994 78.7159 157.934C81.7348 157.812 84.6942 157.142 87.4137 155.965C90.1742 154.811 92.626 153.143 94.6044 151.073C96.5828 149.003 98.0418 146.578 98.8834 143.963C100.714 138.011 99.3549 131.252 95.0071 126.407L96.5161 126.052L94.5513 131.816C94.513 131.934 94.4452 132.043 94.353 132.134C94.2608 132.226 94.1466 132.297 94.019 132.344C93.8914 132.39 93.7536 132.41 93.6161 132.402C93.4786 132.394 93.3449 132.358 93.2251 132.297C89.6643 130.288 85.6835 128.946 81.5242 128.352C77.365 127.758 73.114 127.925 69.0292 128.843C66.721 129.361 64.4917 130.126 62.3898 131.123C61.3643 131.61 60.451 130.219 61.4785 129.731C65.4263 127.892 69.7508 126.787 74.1904 126.484C78.63 126.18 83.0925 126.683 87.3079 127.964C89.7087 128.695 92.0015 129.682 94.1364 130.905L92.8102 131.387L94.7749 125.623C94.8187 125.488 94.9008 125.366 95.0133 125.268C95.1257 125.17 95.2647 125.099 95.4166 125.064C95.5685 125.028 95.7283 125.028 95.8803 125.063C96.0322 125.099 96.1713 125.169 96.2839 125.267C98.306 127.558 99.788 130.19 100.64 133.006C101.493 135.822 101.698 138.762 101.244 141.651C100.805 144.498 99.6973 147.23 97.9933 149.667C96.2892 152.105 94.0273 154.194 91.356 155.796C88.6874 157.405 85.688 158.525 82.5314 159.092C79.3749 159.658 76.1238 159.66 72.9664 159.098C71.1993 158.794 69.1954 158.36 67.4616 159.021C66.8327 159.292 66.2784 159.683 65.838 160.167C65.3976 160.65 65.0818 161.215 64.9132 161.82C63.9307 164.793 65.6024 167.616 67.3102 170.088L65.3512 170.315Z" fill="#2F2E41"/>
<path d="M182.865 229.868L153.09 214.48C152.348 214.097 151.52 213.868 150.666 213.809C149.812 213.75 148.954 213.864 148.156 214.141C147.357 214.418 146.639 214.851 146.053 215.41C145.467 215.968 145.03 216.636 144.772 217.366L136.201 241.687L132.626 251.839C132.221 252.985 132.282 254.221 132.799 255.331C133.315 256.44 134.254 257.351 135.449 257.902L142.045 260.96L163.569 270.93C164.383 271.309 165.287 271.506 166.205 271.505C166.883 271.504 167.555 271.397 168.191 271.188L168.233 271.172C168.985 270.916 169.669 270.521 170.239 270.013C170.809 269.506 171.254 268.897 171.544 268.227L185.339 236.113C185.831 234.98 185.851 233.727 185.398 232.581C184.944 231.435 184.045 230.473 182.865 229.868ZM184.213 235.731L170.418 267.845C170.189 268.375 169.837 268.855 169.386 269.255C168.935 269.655 168.394 269.966 167.8 270.167L167.77 270.178C167.18 270.373 166.551 270.455 165.923 270.421C165.295 270.387 164.682 270.236 164.123 269.979L142.834 260.116L136.003 256.951C135.059 256.515 134.317 255.796 133.91 254.92C133.502 254.043 133.455 253.066 133.776 252.162L137.2 242.428L145.916 217.688C146.12 217.113 146.467 216.587 146.929 216.147C147.392 215.707 147.959 215.365 148.589 215.146C149.218 214.928 149.895 214.838 150.569 214.884C151.243 214.929 151.896 215.109 152.482 215.41L182.257 230.797C183.19 231.275 183.9 232.035 184.259 232.941C184.618 233.846 184.602 234.836 184.213 235.731Z" fill="#3F3D56"/>
<path d="M172.875 240.157C172.574 240.157 172.277 240.089 172.012 239.96L152.15 230.285C151.731 230.08 151.421 229.734 151.287 229.325C151.153 228.915 151.206 228.475 151.435 228.1C151.664 227.725 152.049 227.447 152.508 227.326C152.966 227.205 153.459 227.251 153.879 227.454L173.741 237.129C174.094 237.3 174.372 237.572 174.532 237.901C174.693 238.229 174.726 238.596 174.626 238.943C174.527 239.291 174.301 239.598 173.984 239.818C173.667 240.038 173.277 240.157 172.875 240.157H172.875Z" fill="#6C63FF"/>
<path d="M169.264 247.144C168.962 247.144 168.666 247.076 168.401 246.947L148.539 237.272C148.12 237.067 147.81 236.721 147.676 236.312C147.542 235.902 147.595 235.462 147.824 235.087C148.052 234.713 148.438 234.434 148.896 234.313C149.355 234.192 149.848 234.238 150.268 234.441L170.13 244.116C170.482 244.287 170.761 244.559 170.921 244.888C171.081 245.216 171.114 245.583 171.015 245.93C170.916 246.278 170.69 246.586 170.372 246.805C170.055 247.025 169.665 247.144 169.264 247.144H169.264Z" fill="#6C63FF"/>
<path d="M166.255 254.669C165.953 254.668 165.656 254.601 165.392 254.471L145.53 244.797C145.111 244.591 144.8 244.246 144.666 243.836C144.532 243.427 144.585 242.986 144.814 242.612C145.043 242.237 145.429 241.959 145.887 241.838C146.345 241.717 146.838 241.763 147.259 241.966L167.121 251.64C167.473 251.812 167.751 252.084 167.912 252.412C168.072 252.741 168.105 253.108 168.006 253.455C167.906 253.802 167.68 254.11 167.363 254.33C167.046 254.55 166.656 254.669 166.255 254.669H166.255Z" fill="#6C63FF"/>
<path d="M376.294 102.411H292.796C291.596 102.41 290.446 101.984 289.597 101.226C288.748 100.468 288.271 99.4405 288.27 98.3688V4.04255C288.271 2.97077 288.748 1.94324 289.597 1.18538C290.446 0.427518 291.596 0.00121911 292.796 0H376.294C377.495 0.00122621 378.645 0.427528 379.494 1.18539C380.343 1.94325 380.82 2.97077 380.821 4.04255V98.3688C380.82 99.4405 380.343 100.468 379.494 101.226C378.645 101.984 377.495 102.41 376.294 102.411ZM292.796 0.898347C291.863 0.899282 290.968 1.23085 290.308 1.8203C289.648 2.40975 289.277 3.20894 289.276 4.04255V98.3688C289.277 99.2024 289.648 100.002 290.308 100.591C290.968 101.18 291.863 101.512 292.796 101.513H376.294C377.228 101.512 378.123 101.18 378.783 100.591C379.443 100.002 379.814 99.2024 379.815 98.3688V4.04255C379.814 3.20894 379.443 2.40975 378.783 1.8203C378.123 1.23085 377.228 0.899283 376.294 0.898347H292.796Z" fill="#3F3D56"/>
<path d="M327.6 45.3402H309.22C308.62 45.3396 308.045 45.1265 307.62 44.7475C307.196 44.3686 306.957 43.8548 306.957 43.3189V23.9508C306.957 23.4149 307.196 22.9011 307.62 22.5222C308.045 22.1432 308.62 21.9301 309.22 21.9295H327.6C328.2 21.9301 328.775 22.1432 329.199 22.5222C329.624 22.9011 329.863 23.4149 329.863 23.9508V43.3189C329.863 43.8548 329.624 44.3686 329.199 44.7475C328.775 45.1265 328.2 45.3396 327.6 45.3402Z" fill="#6C63FF"/>
<path d="M363.313 54.3237H344.933C344.333 54.3231 343.758 54.1099 343.333 53.731C342.909 53.3521 342.67 52.8383 342.67 52.3024V32.9342C342.67 32.3983 342.909 31.8846 343.333 31.5056C343.758 31.1267 344.333 30.9136 344.933 30.913H363.313C363.913 30.9136 364.488 31.1267 364.912 31.5056C365.337 31.8846 365.575 32.3983 365.576 32.9342V52.3024C365.575 52.8383 365.337 53.3521 364.912 53.731C364.488 54.1099 363.913 54.3231 363.313 54.3237Z" fill="#CCCCCC"/>
<path d="M334.642 81.7232H316.262C315.662 81.7226 315.087 81.5095 314.662 81.1305C314.238 80.7516 313.999 80.2378 313.999 79.7019V60.3338C313.999 59.7979 314.238 59.2841 314.662 58.9052C315.087 58.5262 315.662 58.3131 316.262 58.3125H334.642C335.242 58.3131 335.817 58.5262 336.242 58.9052C336.666 59.2841 336.905 59.7979 336.905 60.3338V79.7019C336.905 80.2378 336.666 80.7516 336.242 81.1305C335.817 81.5095 335.242 81.7226 334.642 81.7232Z" fill="#FF6584"/>
<path d="M267.378 76.9158C267.031 76.1797 266.449 75.5507 265.706 75.1065C264.962 74.6623 264.089 74.4224 263.195 74.4166H179.696C178.496 74.4172 177.345 74.8432 176.496 75.601C175.648 76.3589 175.171 77.3866 175.17 78.4583V172.785C175.171 173.856 175.648 174.884 176.496 175.642C177.345 176.4 178.496 176.826 179.696 176.826H263.195C264.395 176.825 265.545 176.399 266.394 175.641C267.242 174.883 267.719 173.856 267.721 172.785V78.4583C267.723 77.9289 267.606 77.4044 267.378 76.9158ZM266.716 172.785C266.715 173.618 266.343 174.417 265.683 175.007C265.023 175.596 264.128 175.928 263.195 175.929H179.696C178.762 175.929 177.867 175.597 177.207 175.008C176.546 174.418 176.175 173.618 176.175 172.785V78.4583C176.176 77.6248 176.548 76.8257 177.208 76.2362C177.868 75.6468 178.763 75.3152 179.696 75.3141H263.195C263.898 75.3165 264.585 75.5059 265.167 75.8582C265.749 76.2105 266.2 76.7097 266.463 77.292C266.514 77.4081 266.559 77.5265 266.595 77.6468C266.675 77.9114 266.716 78.1843 266.716 78.4583V172.785Z" fill="#3F3D56"/>
<path d="M249.95 96.6872H224.8C224.267 96.6872 223.755 96.4979 223.378 96.161C223 95.824 222.788 95.367 222.788 94.8905C222.788 94.414 223 93.957 223.378 93.62C223.755 93.2831 224.267 93.0938 224.8 93.0938H249.95C250.484 93.0938 250.996 93.2831 251.373 93.62C251.75 93.957 251.962 94.414 251.962 94.8905C251.962 95.367 251.75 95.824 251.373 96.161C250.996 96.4979 250.484 96.6872 249.95 96.6872Z" fill="#3F3D56"/>
<path d="M249.95 106.12H224.8C224.267 106.12 223.755 105.931 223.378 105.594C223 105.257 222.788 104.8 222.788 104.323C222.788 103.847 223 103.39 223.378 103.053C223.755 102.716 224.267 102.526 224.8 102.526H249.95C250.484 102.526 250.996 102.716 251.373 103.053C251.75 103.39 251.962 103.847 251.962 104.323C251.962 104.8 251.75 105.257 251.373 105.594C250.996 105.931 250.484 106.12 249.95 106.12Z" fill="#3F3D56"/>
<path d="M211.896 111.491H193.516C192.916 111.49 192.341 111.277 191.916 110.898C191.492 110.519 191.253 110.005 191.253 109.47V90.1014C191.253 89.5655 191.492 89.0517 191.916 88.6728C192.341 88.2938 192.916 88.0807 193.516 88.0801H211.896C212.496 88.0807 213.071 88.2938 213.496 88.6728C213.92 89.0517 214.159 89.5655 214.159 90.1014V109.47C214.159 110.005 213.92 110.519 213.496 110.898C213.071 111.277 212.496 111.49 211.896 111.491Z" fill="#6C63FF"/>
<path d="M249.776 125.434H192.937C192.673 125.435 192.411 125.388 192.166 125.298C191.922 125.208 191.699 125.076 191.512 124.909C191.325 124.742 191.176 124.544 191.075 124.326C190.974 124.108 190.922 123.874 190.922 123.638C190.922 123.401 190.974 123.167 191.075 122.949C191.176 122.731 191.325 122.533 191.512 122.366C191.699 122.199 191.922 122.067 192.166 121.977C192.411 121.887 192.673 121.84 192.937 121.841H249.776C250.309 121.842 250.82 122.031 251.196 122.368C251.573 122.705 251.785 123.162 251.785 123.638C251.785 124.113 251.573 124.57 251.196 124.907C250.82 125.244 250.309 125.433 249.776 125.434Z" fill="#CCCCCC"/>
<path d="M249.776 134.867H192.937C192.673 134.867 192.411 134.821 192.166 134.731C191.922 134.641 191.699 134.509 191.512 134.342C191.325 134.175 191.176 133.977 191.075 133.758C190.974 133.54 190.922 133.306 190.922 133.07C190.922 132.834 190.974 132.6 191.075 132.382C191.176 132.164 191.325 131.965 191.512 131.799C191.699 131.632 191.922 131.499 192.166 131.409C192.411 131.319 192.673 131.273 192.937 131.273H249.776C250.31 131.273 250.821 131.463 251.199 131.8C251.576 132.137 251.788 132.594 251.788 133.07C251.788 133.547 251.576 134.004 251.199 134.341C250.821 134.678 250.31 134.867 249.776 134.867Z" fill="#CCCCCC"/>
<path d="M249.776 144.299H192.937C192.673 144.3 192.411 144.254 192.166 144.164C191.922 144.073 191.699 143.941 191.512 143.774C191.325 143.607 191.176 143.409 191.075 143.191C190.974 142.973 190.922 142.739 190.922 142.503C190.922 142.267 190.974 142.033 191.075 141.814C191.176 141.596 191.325 141.398 191.512 141.231C191.699 141.064 191.922 140.932 192.166 140.842C192.411 140.752 192.673 140.706 192.937 140.706H249.776C250.31 140.706 250.821 140.895 251.199 141.232C251.576 141.569 251.788 142.026 251.788 142.503C251.788 142.979 251.576 143.436 251.199 143.773C250.821 144.11 250.31 144.299 249.776 144.299Z" fill="#CCCCCC"/>
<path d="M249.776 153.732H192.937C192.673 153.732 192.411 153.686 192.166 153.596C191.922 153.506 191.699 153.374 191.512 153.207C191.325 153.04 191.176 152.842 191.075 152.624C190.974 152.405 190.922 152.172 190.922 151.935C190.922 151.699 190.974 151.465 191.075 151.247C191.176 151.029 191.325 150.831 191.512 150.664C191.699 150.497 191.922 150.365 192.166 150.275C192.411 150.184 192.673 150.138 192.937 150.139H249.776C250.31 150.139 250.821 150.328 251.199 150.665C251.576 151.002 251.788 151.459 251.788 151.935C251.788 152.412 251.576 152.869 251.199 153.206C250.821 153.543 250.31 153.732 249.776 153.732Z" fill="#CCCCCC"/>
<path d="M249.776 163.165H192.937C192.673 163.165 192.411 163.119 192.166 163.029C191.922 162.939 191.699 162.806 191.512 162.64C191.325 162.473 191.176 162.275 191.075 162.056C190.974 161.838 190.922 161.604 190.922 161.368C190.922 161.132 190.974 160.898 191.075 160.68C191.176 160.462 191.325 160.263 191.512 160.096C191.699 159.93 191.922 159.797 192.166 159.707C192.411 159.617 192.673 159.571 192.937 159.571H249.776C250.309 159.572 250.82 159.762 251.196 160.099C251.573 160.436 251.785 160.892 251.785 161.368C251.785 161.844 251.573 162.301 251.196 162.637C250.82 162.974 250.309 163.164 249.776 163.165Z" fill="#CCCCCC"/>
<path d="M330.668 112.713L283.068 153.181L283.762 153.832L331.362 113.364L330.668 112.713Z" fill="#E6E6E6"/>
<path d="M282.624 154.178L288.666 154.114L288.655 153.215L283.694 153.268L283.997 148.847L282.992 148.793L282.624 154.178Z" fill="#E6E6E6"/>
<path d="M331.805 112.365L331.438 117.751L330.432 117.697L330.735 113.275L325.775 113.329L325.764 112.43L331.805 112.365Z" fill="#E6E6E6"/>
<path d="M307.215 138.213C310.271 138.213 312.748 136.001 312.748 133.272C312.748 130.544 310.271 128.332 307.215 128.332C304.159 128.332 301.682 130.544 301.682 133.272C301.682 136.001 304.159 138.213 307.215 138.213Z" fill="#E6E6E6"/>
<path d="M266.869 17.0429L219.269 57.5116L219.963 58.1623L267.563 17.6936L266.869 17.0429Z" fill="#E6E6E6"/>
<path d="M218.825 58.508L224.866 58.4446L224.856 57.5454L219.895 57.5986L220.198 53.1774L219.193 53.1231L218.825 58.508Z" fill="#E6E6E6"/>
<path d="M268.005 16.6955L267.638 22.081L266.633 22.0272L266.936 17.6054L261.976 17.6586L261.965 16.76L268.005 16.6955Z" fill="#E6E6E6"/>
<path d="M243.416 42.5435C246.472 42.5435 248.949 40.3314 248.949 37.6026C248.949 34.8738 246.472 32.6617 243.416 32.6617C240.36 32.6617 237.883 34.8738 237.883 37.6026C237.883 40.3314 240.36 42.5435 243.416 42.5435Z" fill="#E6E6E6"/>
<path d="M457.388 279.976H456.185V284.813H457.388V279.976Z" fill="#3F3D56"/>
</g>
<defs>
<clipPath id="clip0">
<rect width="538" height="347" fill="white"/>
</clipPath>
</defs>
</svg>
